<?xml version="1.0" encoding="UTF-8" standalone="no"?>
<!DOCTYPE svg PUBLIC "-//W3C//DTD SVG 1.1//EN" "http://www.w3.org/Graphics/SVG/1.1/DTD/svg11.dtd">
<svg width="100%" height="100%" viewBox="0 0 800 800" version="1.1" xmlns="http://www.w3.org/2000/svg" xmlns:xlink="http://www.w3.org/1999/xlink" xml:space="preserve" xmlns:serif="http://www.serif.com/" style="fill-rule:evenodd;clip-rule:evenodd;stroke-linecap:round;stroke-linejoin:round;stroke-miterlimit:2;">
    <path d="M490,539.4C490,539.6 482.7,544.7 473.8,550.8C454.3,564 445.8,570.3 435.2,579.3C414.8,596.8 407,613.6 413.2,627.1C420,641.8 438.1,652.2 461.4,655C489.1,658.3 525,648.6 553.4,630.3C557.1,627.9 560.4,626.1 560.7,626.4C561.5,627.1 558.2,636.5 553.9,645.9C535.4,686 493.4,718.4 444.4,730.1C417.6,736.5 384.2,736.6 357.3,730.5C330.4,724.4 302.3,710.3 281.8,692.6C264.3,677.6 248.6,655 241.4,634.8L240,630.9L243.3,632.8C255.2,640.2 273.4,647.7 288.3,651.5C323.5,660.4 355.1,654.9 372.6,636.8C379.9,629.3 381.4,625.9 381.5,617.5C381.5,611.5 381,609.4 378.2,603.7C371.9,591 354.8,575.2 325.5,555L313.5,546.8L318.5,547.3C348.6,550.9 406.3,551.5 433.3,548.6C450.3,546.8 475.5,542.8 483.5,540.6C489.5,539 490,538.9 490,539.4Z" style="fill:white;stroke:rgb(130,68,51);stroke-width:0.64px;"/>
    <path d="M414.2,64C446.4,66.1 467,71.8 498.8,87.5C526.6,101.2 550.9,118.9 575.5,143.5C622.1,190.1 651.9,247 660.2,305.5C662.2,319.6 661.9,350.7 659.7,360.8C652.9,391.7 639.3,416.5 616.8,439C579.1,476.5 520.9,500.5 445,509.5C426.6,511.7 379.7,512.6 360,511.1C300,506.5 250,491.5 211.9,466.5C174.2,441.9 151.3,410 140.9,368C138.8,359.5 138.6,356.1 138.5,336C138.5,306.4 141.3,289 150.7,260.5C168.4,206.7 206.5,153.3 255.1,114.4C268.1,104 278.4,97.3 293,89.6C324.1,73.4 349.5,66.2 383,64C389.3,63.6 395.4,63.2 396.5,63.2C397.6,63.1 405.6,63.5 414.2,64ZM506,172.9C497.6,175.5 493.3,180 494.9,184.3C496.3,188 499.9,188.6 504.8,186.1C510,183.4 516.9,183.4 521.9,186C527.4,188.8 534.5,197.1 538.5,205.6C540.4,209.6 542,213.3 542,213.8C542,214.3 542.9,215.5 543.9,216.4C546.6,218.9 551.1,218.1 552.9,214.9C554.2,212.5 554,211.7 549.6,202.5C541.5,185.3 534.1,177.7 521.8,173.8C515.6,171.9 510.3,171.6 506,172.9ZM387,316.5C376.4,319.5 370,324.7 370,330.2C370,337.3 386.8,348.2 397.9,348.4C405.3,348.5 413.7,344.4 420.8,337.4C425.1,333 426,331.5 426,328.5C426,324.1 423,320.8 416.2,317.8C409.9,315 394.8,314.4 387,316.5ZM450.3,331.4C447.3,334 447.5,335 452.5,341.9C455.2,345.5 455.8,351.7 454,356.4C452.2,361.2 446.1,366.8 440.8,368.6C430.2,372.1 420,368.8 408.8,358.3C405.1,354.8 401.5,352 400.9,352C400.2,352 396.3,355.5 392.1,359.9C383.5,368.8 376.5,372.9 368.4,373.7C360.8,374.5 354.5,372.5 349.4,367.6C342.7,361.1 341.9,355.8 346.1,345.3C347.1,342.7 347.1,341.9 346.1,340.6C344.7,338.9 340.3,338.5 338.4,339.8C333.3,343.2 331.8,358 335.8,366.2C338.8,372.2 344.8,378.2 350.8,381.2C354.8,383.1 357.1,383.5 365.5,383.5C374.8,383.5 376,383.3 382.2,380.2C386,378.4 391.7,374.4 395,371.3L401,365.8L406.3,369.8C409.2,372.1 414.3,375.2 417.5,376.7C422.8,379.1 424.7,379.5 433,379.5C440.5,379.5 443.4,379.1 447.1,377.4C458,372.3 465,361.8 465,350.3C465,346.9 464.5,342.9 463.9,341.3C462.3,336.8 458.1,331.4 455.5,330.2C453.4,329.2 452.6,329.4 450.3,331.4ZM506.1,255.6C493.7,260.1 485.5,269.3 483,281.7C480.2,295.1 488.3,309 502.9,315.9C507.6,318.1 509.9,318.5 517.5,318.5C525.7,318.5 527,318.2 532,315.4C542.2,309.6 547.6,299.7 547.4,287C547.2,274.1 539.3,261.7 528.5,256.9C522,254 512,253.4 506.1,255.6ZM270.4,263C260.2,265.1 250.1,273.2 245.7,282.8C244.1,286.4 243.5,289.5 243.5,295.5C243.5,302.5 243.9,304.2 246.4,308.8C257.3,328.5 284.4,333.5 299.3,318.6C305.3,312.7 307.3,307.7 307.8,298C308.1,291 307.8,288.5 306,283.8C300.5,269.2 284.8,260 270.4,263ZM256.3,185.9C242.9,190.5 234.5,200.8 228,220.3C225.4,228.2 225.9,231.6 229.7,233.1C234,234.7 236.3,232.3 239.4,222.7C242.7,212.5 248.5,203.3 254,199.5C259.3,195.8 267.4,195 272.9,197.5C277.5,199.5 280.6,198.4 281.6,194.5C282.5,190.8 279.8,187.5 274.4,185.6C268.3,183.5 262.8,183.6 256.3,185.9Z" style="fill:white;"/>
    <g transform="matrix(1.33695,0,0,1.33695,-71.9921,-109.848)">
        <circle cx="218.402" cy="355.172" r="47.87" style="fill:rgb(254,171,190);"/>
    </g>
    <g transform="matrix(0.976238,0,0,1.00612,-4.74117,12.1685)">
        <ellipse cx="578.487" cy="350.684" rx="65.558" ry="63.611" style="fill:rgb(254,171,190);"/>
    </g>
    <g transform="matrix(0.1,0,0,-0.1,0,800)">
        <path id="outline" d="M2107,7660C1911,7625 1755,7508 1665,7329C1576,7153 1561,6961 1620,6738C1661,6581 1753,6407 1832,6335L1880,6292L1777,6139C1461,5664 1290,5139 1286,4630C1285,4495 1289,4445 1307,4354C1359,4101 1464,3865 1609,3675C1683,3578 1838,3423 1938,3347L2031,3277L1996,3241C1921,3164 1856,3020 1831,2876C1807,2744 1823,2522 1867,2370C1906,2235 2019,2022 2085,1960C2099,1947 2110,1934 2110,1931C2110,1928 2066,1925 2012,1925C1925,1925 1909,1922 1855,1895C1797,1866 1704,1784 1664,1727L1645,1699L1590,1724C1481,1774 1349,1775 1252,1729C1154,1681 1073,1567 1039,1430C1018,1347 1021,1103 1044,1015C1125,703 1365,462 1688,369C1825,330 1875,329 4065,332C6068,336 6189,337 6260,354C6608,438 6871,688 6956,1015C6979,1103 6982,1347 6961,1430C6891,1711 6657,1836 6410,1724L6355,1699L6335,1727C6270,1817 6184,1884 6096,1913C6035,1934 5919,1935 5855,1915C5828,1907 5805,1902 5804,1903C5802,1904 5826,1936 5855,1973C6031,2192 6122,2478 6107,2763C6097,2953 6039,3120 5946,3225L5903,3274L5981,3330C6235,3511 6422,3725 6550,3980C6660,4199 6713,4418 6713,4655C6713,5198 6507,5773 6132,6276C6054,6380 6039,6406 6048,6419C6194,6629 6269,6892 6241,7094C6194,7430 5952,7653 5635,7652C5388,7651 5165,7512 5050,7284C5031,7248 5012,7221 5006,7224C5000,7226 4953,7247 4902,7269C4717,7351 4479,7419 4311,7440C4081,7468 3806,7462 3565,7424C3394,7397 3075,7284 2904,7190L2832,7151L2826,7185C2816,7237 2746,7368 2698,7427C2610,7532 2487,7612 2364,7644C2287,7663 2168,7671 2107,7660ZM4142,7360C4464,7339 4670,7282 4988,7125C5266,6988 5509,6811 5755,6565C6221,6099 6519,5530 6602,4945C6622,4804 6619,4493 6597,4392C6529,4083 6393,3835 6168,3610C5791,3235 5209,2995 4450,2905C4266,2883 3797,2874 3600,2889C3000,2935 2500,3085 2119,3335C1742,3581 1513,3900 1409,4320C1388,4405 1386,4439 1385,4640C1385,4936 1413,5110 1507,5395C1684,5933 2065,6467 2551,6856C2681,6960 2784,7027 2930,7104C3241,7266 3495,7338 3830,7360C3893,7364 3954,7368 3965,7368C3976,7369 4056,7365 4142,7360ZM4900,2606C4900,2604 4827,2553 4738,2492C4543,2360 4458,2297 4352,2207C4148,2032 4070,1864 4132,1729C4200,1582 4381,1478 4614,1450C4891,1417 5250,1514 5534,1697C5571,1721 5604,1739 5607,1736C5615,1729 5582,1635 5539,1541C5354,1140 4934,816 4444,699C4176,635 3842,634 3573,695C3304,756 3023,897 2818,1074C2643,1224 2486,1450 2414,1652L2400,1691L2433,1672C2552,1598 2734,1523 2883,1485C3235,1396 3551,1451 3726,1632C3799,1707 3814,1741 3815,1825C3815,1885 3810,1906 3782,1963C3719,2090 3548,2248 3255,2450L3135,2532L3185,2527C3486,2491 4063,2485 4333,2514C4503,2532 4755,2572 4835,2594C4895,2610 4900,2611 4900,2606Z" style="fill-rule:nonzero;"/>
        <path id="right-eyebrow" d="M5060,6271C4976,6245 4933,6200 4949,6157C4963,6120 4999,6114 5048,6139C5100,6166 5169,6166 5219,6140C5274,6112 5345,6029 5385,5944C5404,5904 5420,5867 5420,5862C5420,5857 5429,5845 5439,5836C5466,5811 5511,5819 5529,5851C5542,5875 5540,5883 5496,5975C5415,6147 5341,6223 5218,6262C5156,6281 5103,6284 5060,6271Z" style="fill-rule:nonzero;"/>
        <path id="left-eyebrow" d="M2563,6141C2429,6095 2345,5992 2280,5797C2254,5718 2259,5684 2297,5669C2340,5653 2363,5677 2394,5773C2427,5875 2485,5967 2540,6005C2593,6042 2674,6050 2729,6025C2775,6005 2806,6016 2816,6055C2825,6092 2798,6125 2744,6144C2683,6165 2628,6164 2563,6141Z" style="fill-rule:nonzero;"/>
        <path id="right-eye" d="M5061,5444C4937,5399 4855,5307 4830,5183C4802,5049 4883,4910 5029,4841C5076,4819 5099,4815 5175,4815C5257,4815 5270,4818 5320,4846C5422,4904 5476,5003 5474,5130C5472,5259 5393,5383 5285,5431C5220,5460 5120,5466 5061,5444ZM5218,5312C5303,5232 5257,5070 5149,5070C5037,5070 4997,5270 5098,5324C5141,5348 5184,5344 5218,5312Z" style="fill-rule:nonzero;"/>
        <path id="left-eye" d="M2704,5370C2602,5349 2501,5268 2457,5172C2441,5136 2435,5105 2435,5045C2435,4975 2439,4958 2464,4912C2573,4715 2844,4665 2993,4814C3053,4873 3073,4923 3078,5020C3081,5090 3078,5115 3060,5162C3005,5308 2848,5400 2704,5370ZM2823,5263C2834,5253 2849,5231 2856,5213C2912,5082 2779,4959 2685,5053C2641,5097 2632,5146 2655,5206C2685,5285 2767,5312 2823,5263Z" style="fill-rule:nonzero;"/>
        <path id="nose" d="M3870,4835C3764,4805 3700,4753 3700,4698C3700,4627 3868,4518 3979,4516C4053,4515 4137,4556 4208,4626C4251,4670 4260,4685 4260,4715C4260,4759 4230,4792 4162,4822C4099,4850 3948,4856 3870,4835Z" style="fill-rule:nonzero;"/>
        <path id="mouth" d="M4503,4686C4473,4660 4475,4650 4525,4581C4552,4545 4558,4483 4540,4436C4522,4388 4461,4332 4408,4314C4302,4279 4200,4312 4088,4417C4051,4452 4015,4480 4009,4480C4002,4480 3963,4445 3921,4401C3835,4312 3765,4271 3684,4263C3608,4255 3545,4275 3494,4324C3427,4389 3419,4442 3461,4547C3471,4573 3471,4581 3461,4594C3447,4611 3403,4615 3384,4602C3333,4568 3318,4420 3358,4338C3388,4278 3448,4218 3508,4188C3548,4169 3571,4165 3655,4165C3748,4165 3760,4167 3822,4198C3860,4216 3917,4256 3950,4287L4010,4342L4063,4302C4092,4279 4143,4248 4175,4233C4228,4209 4247,4205 4330,4205C4405,4205 4434,4209 4471,4226C4580,4277 4650,4382 4650,4497C4650,4531 4645,4571 4639,4587C4623,4632 4581,4686 4555,4698C4534,4708 4526,4706 4503,4686Z" style="fill-rule:nonzero;"/>
    </g>
</svg>
